<svg xmlns="http://www.w3.org/2000/svg" fill="none" viewBox="0 0 100 100"><g clip-path="url(#a)"><path fill="url(#b)" d="M57.894 98.338c-2.554 3.217-7.734 1.454-7.796-2.654l-.9-60.082h40.4c7.316 0 11.397 8.452 6.847 14.182z"/><path fill="url(#c)" fill-opacity=".2" d="M57.894 98.338c-2.554 3.217-7.734 1.454-7.796-2.654l-.9-60.082h40.4c7.316 0 11.397 8.452 6.847 14.182z"/><path fill="#3ecf8e" d="M41.464 1.66c2.555-3.217 7.735-1.454 7.796 2.654l.395 60.082H9.76c-7.318 0-11.399-8.452-6.848-14.182z"/></g><defs><linearGradient id="b" x1="49.198" x2="85.103" y1="48.924" y2="63.982" gradientUnits="userSpaceOnUse"><stop stop-color="#249361"/><stop offset="1" stop-color="#3ecf8e"/></linearGradient><linearGradient id="c" x1="33.279" x2="49.654" y1="27.128" y2="57.953" gradientUnits="userSpaceOnUse"><stop/><stop offset="1" stop-opacity="0"/></linearGradient><clipPath id="a"><path fill="#fff" d="M0 0h100v100H0z"/></clipPath></defs></svg>