<svg xmlns="http://www.w3.org/2000/svg" fill="none" viewBox="0 0 100 100"><path fill="#e95420" d="M81.018 0H18v100h63.018z"/><path fill="#fff" d="M32.408 70.555c3.602 0 6.524-2.944 6.524-6.576 0-3.63-2.922-6.574-6.524-6.574-3.603 0-6.523 2.943-6.523 6.575 0 3.63 2.92 6.575 6.523 6.575m27.17-14.418c3.604 0 6.524-2.943 6.524-6.575 0-3.63-2.92-6.575-6.524-6.575-3.602 0-6.523 2.944-6.523 6.575s2.921 6.575 6.523 6.575M47.122 80.905c-4.7-1.015-8.626-4.04-10.834-8.33a9.3 9.3 0 0 1-5.578.69C33.38 79.877 39.045 84.68 46 86.183c1.526.33 3.08.49 4.633.48a9.45 9.45 0 0 1-1.91-5.498 16 16 0 0 1-1.6-.263zm10.99 6.61c3.603 0 6.523-2.944 6.523-6.575s-2.92-6.575-6.523-6.575-6.524 2.943-6.524 6.575c0 3.63 2.921 6.575 6.523 6.575m9.078-8.99a21.62 21.62 0 0 0 4.241-17.358 21.7 21.7 0 0 0-3.173-7.882 9.45 9.45 0 0 1-3.668 4.33 16.2 16.2 0 0 1 1.508 10.918 16.2 16.2 0 0 1-2.029 5.094 9.45 9.45 0 0 1 3.123 4.9zM31.906 54.55a9.2 9.2 0 0 1 2.465.2 9.2 9.2 0 0 1 2.979 1.21c2.937-4.258 7.676-6.812 12.811-6.908a9.53 9.53 0 0 1 1.98-5.333c-8.205-.654-16.178 3.614-20.238 10.833z"/></svg>